REM DIRINDEX 1\2\6,1\2\7,1\2\8,1\2\9,1\3\10,1\3\11,1\4\12,1\4\13,1\4\14,1\5\15,1\5\16,1\5\17
REM DIRNAME cjc020,folder01,folder02,folder03,folder04,folder05,folder06,folder07,folder08,folder09,folder10,folder11,folder12,folder13,folder14,folder15,folder16
TITLE ""
FILE "1900_3_018 sec03_0279_0300.mp3" MP3
  TRACK 01 AUDIO
    TITLE "0:"
    INDEX 01 00:00:00
  TRACK 02 AUDIO
    TITLE "17:cjc020_6526"
    INDEX 01 00:00:17
  TRACK 03 AUDIO
    TITLE "0:"
    INDEX 01 00:01:69
  TRACK 04 AUDIO
    TITLE "16:cjc020_6527"
    INDEX 01 00:02:00
  TRACK 05 AUDIO
    TITLE "0:"
    INDEX 01 00:03:19
  TRACK 06 AUDIO
    TITLE "17:cjc020_6528"
    INDEX 01 00:04:01
  TRACK 07 AUDIO
    TITLE "0:"
    INDEX 01 00:05:16
  TRACK 08 AUDIO
    TITLE "16:cjc020_6529"
    INDEX 01 00:05:18
  TRACK 09 AUDIO
    TITLE "0:"
    INDEX 01 00:06:22
  TRACK 10 AUDIO
    TITLE "17:cjc020_6530"
    INDEX 01 00:07:05
  TRACK 11 AUDIO
    TITLE "0:"
    INDEX 01 00:08:28
  TRACK 12 AUDIO
    TITLE "16:cjc020_6531"
    INDEX 01 00:08:32
  TRACK 13 AUDIO
    TITLE "0:"
    INDEX 01 00:09:38
  TRACK 14 AUDIO
    TITLE "17:cjc020_6532"
    INDEX 01 00:10:25
  TRACK 15 AUDIO
    TITLE "0:"
    INDEX 01 00:11:44
  TRACK 16 AUDIO
    TITLE "16:cjc020_6533"
    INDEX 01 00:11:50
  TRACK 17 AUDIO
    TITLE "0:"
    INDEX 01 00:12:65
  TRACK 18 AUDIO
    TITLE "17:cjc020_6534"
    INDEX 01 00:13:45
  TRACK 19 AUDIO
    TITLE "0:"
    INDEX 01 00:14:45
  TRACK 20 AUDIO
    TITLE "16:cjc020_6535"
    INDEX 01 00:14:53
  TRACK 21 AUDIO
    TITLE "0:"
    INDEX 01 00:15:66
  TRACK 22 AUDIO
    TITLE "17:cjc020_6536"
    INDEX 01 00:16:53
  TRACK 23 AUDIO
    TITLE "0:"
    INDEX 01 00:18:23
  TRACK 24 AUDIO
    TITLE "16:cjc020_6537"
    INDEX 01 00:18:33
  TRACK 25 AUDIO
    TITLE "0:"
    INDEX 01 00:19:42
  TRACK 26 AUDIO
    TITLE "17:cjc020_6538"
    INDEX 01 00:20:26
  TRACK 27 AUDIO
    TITLE "0:"
    INDEX 01 00:22:70
  TRACK 28 AUDIO
    TITLE "16:cjc020_6539"
    INDEX 01 00:23:03
  TRACK 29 AUDIO
    TITLE "0:"
    INDEX 01 00:24:02
  TRACK 30 AUDIO
    TITLE "17:cjc020_6540"
    INDEX 01 00:24:59
  TRACK 31 AUDIO
    TITLE "0:"
    INDEX 01 00:26:01
  TRACK 32 AUDIO
    TITLE "16:cjc020_6541"
    INDEX 01 00:26:11
  TRACK 33 AUDIO
    TITLE "0:"
    INDEX 01 00:27:26
  TRACK 34 AUDIO
    TITLE "17:cjc020_6542"
    INDEX 01 00:28:12
  TRACK 35 AUDIO
    TITLE "0:"
    INDEX 01 00:30:40
  TRACK 36 AUDIO
    TITLE "16:cjc020_6543"
    INDEX 01 00:30:46
  TRACK 37 AUDIO
    TITLE "0:"
    INDEX 01 00:31:49
  TRACK 38 AUDIO
    TITLE "17:cjc020_6544"
    INDEX 01 00:32:31
  TRACK 39 AUDIO
    TITLE "0:"
    INDEX 01 00:35:12
  TRACK 40 AUDIO
    TITLE "16:cjc020_6545"
    INDEX 01 00:35:21
  TRACK 41 AUDIO
    TITLE "0:"
    INDEX 01 00:36:33
  TRACK 42 AUDIO
    TITLE "17:cjc020_6546"
    INDEX 01 00:37:18
  TRACK 43 AUDIO
    TITLE "0:"
    INDEX 01 00:38:53
  TRACK 44 AUDIO
    TITLE "16:cjc020_6547"
    INDEX 01 00:38:59
  TRACK 45 AUDIO
    TITLE "0:"
    INDEX 01 00:39:58
  TRACK 46 AUDIO
    TITLE "17:cjc020_6548"
    INDEX 01 00:40:46
  TRACK 47 AUDIO
    TITLE "0:"
    INDEX 01 00:41:51
  TRACK 48 AUDIO
    TITLE "16:cjc020_6549"
    INDEX 01 00:41:61
  TRACK 49 AUDIO
    TITLE "0:"
    INDEX 01 00:43:09
  TRACK 50 AUDIO
    TITLE "17:cjc020_6550"
    INDEX 01 00:43:66
  TRACK 51 AUDIO
    TITLE "0:"
    INDEX 01 00:45:08
  TRACK 52 AUDIO
    TITLE "16:cjc020_6551"
    INDEX 01 00:45:14
  TRACK 53 AUDIO
    TITLE "0:"
    INDEX 01 00:46:21
  TRACK 54 AUDIO
    TITLE "17:cjc020_6552"
    INDEX 01 00:47:05
  TRACK 55 AUDIO
    TITLE "0:"
    INDEX 01 00:48:22
  TRACK 56 AUDIO
    TITLE "16:cjc020_6553"
    INDEX 01 00:48:28
  TRACK 57 AUDIO
    TITLE "0:"
    INDEX 01 00:49:45
  TRACK 58 AUDIO
    TITLE "17:cjc020_6554"
    INDEX 01 00:50:25
  TRACK 59 AUDIO
    TITLE "0:"
    INDEX 01 00:51:38
  TRACK 60 AUDIO
    TITLE "16:cjc020_6555"
    INDEX 01 00:51:46
  TRACK 61 AUDIO
    TITLE "0:"
    INDEX 01 00:52:45
  TRACK 62 AUDIO
    TITLE "17:cjc020_6556"
    INDEX 01 00:53:25
  TRACK 63 AUDIO
    TITLE "0:"
    INDEX 01 00:54:21
  TRACK 64 AUDIO
    TITLE "16:cjc020_6557"
    INDEX 01 00:54:27
  TRACK 65 AUDIO
    TITLE "0:"
    INDEX 01 00:55:28
  TRACK 66 AUDIO
    TITLE "17:cjc020_6558"
    INDEX 01 00:56:14
  TRACK 67 AUDIO
    TITLE "0:"
    INDEX 01 00:57:17
  TRACK 68 AUDIO
    TITLE "16:cjc020_6559"
    INDEX 01 00:57:25
  TRACK 69 AUDIO
    TITLE "0:"
    INDEX 01 00:58:34
  TRACK 70 AUDIO
    TITLE "17:cjc020_6560"
    INDEX 01 00:59:18
  TRACK 71 AUDIO
    TITLE "0:"
    INDEX 01 01:00:37
  TRACK 72 AUDIO
    TITLE "16:cjc020_6561"
    INDEX 01 01:00:39
  TRACK 73 AUDIO
    TITLE "0:"
    INDEX 01 01:01:62
  TRACK 74 AUDIO
    TITLE "17:cjc020_6562"
    INDEX 01 01:02:48
  TRACK 75 AUDIO
    TITLE "0:"
    INDEX 01 01:03:43
  TRACK 76 AUDIO
    TITLE "16:cjc020_6563"
    INDEX 01 01:03:49
  TRACK 77 AUDIO
    TITLE "0:"
    INDEX 01 01:04:48
  TRACK 78 AUDIO
    TITLE "17:cjc020_6564"
    INDEX 01 01:05:32
  TRACK 79 AUDIO
    TITLE "0:"
    INDEX 01 01:07:12
  TRACK 80 AUDIO
    TITLE "16:cjc020_6565"
    INDEX 01 01:07:21
  TRACK 81 AUDIO
    TITLE "0:"
    INDEX 01 01:08:64
  TRACK 82 AUDIO
    TITLE "17:cjc020_6566"
    INDEX 01 01:09:36
  TRACK 83 AUDIO
    TITLE "0:"
    INDEX 01 01:10:65
  TRACK 84 AUDIO
    TITLE "16:cjc020_6567"
    INDEX 01 01:10:71
  TRACK 85 AUDIO
    TITLE "0:"
    INDEX 01 01:12:15
  TRACK 86 AUDIO
    TITLE "17:cjc020_6568"
    INDEX 01 01:13:02
  TRACK 87 AUDIO
    TITLE "0:"
    INDEX 01 01:14:23
  TRACK 88 AUDIO
    TITLE "16:cjc020_6569"
    INDEX 01 01:14:29
  TRACK 89 AUDIO
    TITLE "0:"
    INDEX 01 01:15:25
